<svg width="24" height="24" viewBox="0 0 24 24" fill="none" xmlns="http://www.w3.org/2000/svg">
<path fill-rule="evenodd" clip-rule="evenodd" d="M7.1999 2.40002C6.88164 2.40002 6.57642 2.52645 6.35137 2.7515C6.12633 2.97654 5.9999 3.28176 5.9999 3.60002V4.80002H4.7999C4.16338 4.80002 3.55293 5.05288 3.10285 5.50297C2.65276 5.95306 2.3999 6.56351 2.3999 7.20002V19.2C2.3999 19.8365 2.65276 20.447 3.10285 20.8971C3.55293 21.3472 4.16338 21.6 4.7999 21.6H19.1999C19.8364 21.6 20.4469 21.3472 20.897 20.8971C21.347 20.447 21.5999 19.8365 21.5999 19.2V7.20002C21.5999 6.56351 21.347 5.95306 20.897 5.50297C20.4469 5.05288 19.8364 4.80002 19.1999 4.80002H17.9999V3.60002C17.9999 3.28176 17.8735 2.97654 17.6484 2.7515C17.4234 2.52645 17.1182 2.40002 16.7999 2.40002C16.4816 2.40002 16.1764 2.52645 15.9514 2.7515C15.7263 2.97654 15.5999 3.28176 15.5999 3.60002V4.80002H8.3999V3.60002C8.3999 3.28176 8.27347 2.97654 8.04843 2.7515C7.82339 2.52645 7.51816 2.40002 7.1999 2.40002ZM7.1999 8.40002C6.88164 8.40002 6.57642 8.52645 6.35137 8.7515C6.12633 8.97654 5.9999 9.28176 5.9999 9.60002C5.9999 9.91828 6.12633 10.2235 6.35137 10.4486C6.57642 10.6736 6.88164 10.8 7.1999 10.8H16.7999C17.1182 10.8 17.4234 10.6736 17.6484 10.4486C17.8735 10.2235 17.9999 9.91828 17.9999 9.60002C17.9999 9.28176 17.8735 8.97654 17.6484 8.7515C17.4234 8.52645 17.1182 8.40002 16.7999 8.40002H7.1999Z" fill="#111111"/>
</svg>
