<svg width="24" height="24" viewBox="0 0 24 24" fill="none" xmlns="http://www.w3.org/2000/svg">
<path d="M2.40381 7.06085L12.0002 11.8584L21.5966 7.06085C21.5611 6.44938 21.2931 5.87463 20.8476 5.45432C20.4021 5.03401 19.8127 4.79994 19.2002 4.80005H4.80021C4.18771 4.79994 3.59835 5.03401 3.15282 5.45432C2.7073 5.87463 2.43933 6.44938 2.40381 7.06085Z" fill="#111111"/>
<path d="M21.5999 9.74158L11.9999 14.5416L2.3999 9.74158V16.8C2.3999 17.4365 2.65276 18.0469 3.10285 18.497C3.55293 18.9471 4.16338 19.2 4.7999 19.2H19.1999C19.8364 19.2 20.4469 18.9471 20.897 18.497C21.347 18.0469 21.5999 17.4365 21.5999 16.8V9.74158Z" fill="#111111"/>
</svg>
