<svg width="24" height="24" viewBox="0 0 24 24" fill="none" xmlns="http://www.w3.org/2000/svg">
<path d="M2.3999 3.60002C2.3999 3.28176 2.52633 2.97654 2.75137 2.7515C2.97642 2.52645 3.28164 2.40002 3.5999 2.40002H6.1835C6.46755 2.40016 6.74234 2.50104 6.959 2.68474C7.17565 2.86843 7.32012 3.12302 7.3667 3.40322L8.2547 8.72522C8.29713 8.97869 8.25707 9.23907 8.14042 9.46806C8.02377 9.69705 7.83668 9.88254 7.6067 9.99723L5.7491 10.9248C6.41523 12.5756 7.4073 14.0752 8.66603 15.3339C9.92476 16.5926 11.4243 17.5847 13.0751 18.2508L14.0039 16.3932C14.1185 16.1635 14.3038 15.9765 14.5326 15.8599C14.7613 15.7433 15.0214 15.7031 15.2747 15.7452L20.5967 16.6332C20.8769 16.6798 21.1315 16.8243 21.3152 17.0409C21.4989 17.2576 21.5998 17.5324 21.5999 17.8164V20.4C21.5999 20.7183 21.4735 21.0235 21.2484 21.2486C21.0234 21.4736 20.7182 21.6 20.3999 21.6H17.9999C9.3839 21.6 2.3999 14.616 2.3999 6.00002V3.60002Z" fill="#111111"/>
</svg>
