<svg width="12" height="12" viewBox="0 0 12 12" fill="none" xmlns="http://www.w3.org/2000/svg">
<path fill-rule="evenodd" clip-rule="evenodd" d="M1.46454 1.05025C1.46458 0.785087 1.56994 0.530795 1.75743 0.343296C1.94493 0.155796 2.19923 0.0504429 2.46439 0.0504029H10.9497C11.2148 0.0504429 11.4691 0.155796 11.6566 0.343296C11.8441 0.530795 11.9495 0.785087 11.9495 1.05025L11.9495 9.53553C11.945 9.7977 11.8376 10.0476 11.6506 10.2314C11.4636 10.4152 11.2119 10.5182 10.9497 10.5182C10.6875 10.5182 10.4357 10.4152 10.2487 10.2314C10.0617 10.0476 9.95438 9.7977 9.94982 9.53553L9.94982 3.46431L1.75728 11.6569C1.56975 11.8444 1.31539 11.9497 1.05018 11.9497C0.78496 11.9497 0.530607 11.8444 0.34307 11.6569C0.155534 11.4693 0.0501767 11.215 0.0501767 10.9497C0.0501767 10.6845 0.155534 10.4302 0.34307 10.2426L8.53561 2.0501L2.46439 2.0501C2.19923 2.05006 1.94493 1.94471 1.75743 1.75721C1.56994 1.56971 1.46458 1.31542 1.46454 1.05025Z" fill="#111111"/>
</svg>
